# xmcd
#
# Track frame offsets: 
#        150
#        15742
#        33250
#        49370
#        69462
#        85207
#        109067
#        129820
#        142462
#        152530
#        166870
#        181592
#        197527
#        220755
#
# Disc length: 3135 seconds
#
# Revision: 10
# Processed by: cddbd v1.5.2PL0 Copyright (c) Steve Scherf et al.
# Submitted via: ExactAudioCopy v0.99pb5
#
DISCID=b60c3d0e
DTITLE=Miles Davis - Miles Ahead
DYEAR=1957
DGENRE=Jazz
TTITLE0=Springsville
TTITLE1=The Maids of Cadiz
TTITLE2=The Duke
TTITLE3=My Ship
TTITLE4=Miles Ahead
TTITLE5=Blues for Pablo
TTITLE6=New Rhumba
TTITLE7=The Meaning of the Blues
TTITLE8=Lament
TTITLE9=I Don't Wanna Be Kissed (By Anyone but You)
TTITLE10=Springsville [Take 7]
TTITLE11=Blues for Pablo [Take 1]
TTITLE12=The Meaning of the Blues/Lament [rehearsal]
TTITLE13=I Don't Wanna Be Kissed (By Anyone but You) [alternate]
EXTD=Columbia/Legacy     CK65121\nSubtitled: \nOrchestra under the dir
EXTD=ection of Gill Evans\nMiles Davis and 19\n\nSession A: May 6, 1957;
EXTD=tracks 2-3.\nSession B: May 10, 1957 - tracks 4-5.\nSession C: Ma
EXTD=y 23, 1957 - tracks 1, 6-7, 12.\nSession D: May 27, 1957 - tracks 1
EXTD=2, 4, 8-11, 13-14.\nSession E: August 22, 1957 - tracks 1, 5, 7, 
EXTD=10.\nAll sessions at 30th St. Studio, New York, NY.\n\n- personne
EXTD=l -\n<Player: Instrument(s) (sessions) (tracks);>\nDanny Bank: ba
EXTD=ss clarinet (A-D) (all);\nBill Barber: tuba (A-D) (all);\nJoe Ben
EXTD=nett: trombone (A-D) (all);\nJimmy Buffington: French horn (C) (1
EXTD=, 6-7, 12);\nEddie Caine: flute, clarinet (D) (1-2, 4, 8-11, 13-1
EXTD=4);\nJohn Carisi: trumpet (A-D) (all);\nPaul Chambers: (A-D) (all
EXTD=);\nJimmy Cleveland: trombone (A-D) (all);\nSid Cooper: flute, cl
EXTD=arinet (A-C) (1-7, 12);\nMiles Davis: flugelhorn (all) (all);\nGi
EXTD=l Evans: arranger, conductor (A-D) (all);\nBernie Glow: trumpet (
EXTD=A-D) (all);\nTaft Jordan: trumpet (A-D) (all);\nWynton Kelly: pia
EXTD=no (D) (1-2, 4, 8-11, 13-14);\nLee Konitz: alto saxophone (A-D) (
EXTD=all);\nTony Miranda: French horn (A-B, D) (1-5, 8-11, 13-14);\nTo
EXTD=m Mitchell: bass trombone (A-D) (all);\nLouis Mucci: trumpet (A-D
EXTD=) (all);\nRomero Penque: flute (A-D) (all), clarinet (A-D) (all),
EXTD=bass clarinet (A-C) (1-7, 12), oboe (A, C-D) (1-4, 6-14);\nFrank
EXTD=Rehak: trombone (A-D) (all);\nErnie Royal: trumpet (A-D) (all);\n
EXTD=Willie Ruff: French horn (A-D) (all);\nArthur Taylor: drums (A-D)
EXTD=(all);
EXTT0=
EXTT1=
EXTT2=
EXTT3=
EXTT4=
EXTT5=
EXTT6=
EXTT7=
EXTT8=
EXTT9=
EXTT10=
EXTT11=
EXTT12=
EXTT13=
PLAYORDER=
